<svg xmlns="http://www.w3.org/2000/svg" width="48" height="48" viewBox="0 0 48 48" fill="none">
  <circle cx="24" cy="24" r="24" fill="#7B8794"/>
  <path d="M26 27C26.2833 27 26.5292 26.8958 26.7375 26.6875C26.9458 26.4792 27.05 26.2333 27.05 25.95C27.05 25.6667 26.9458 25.4208 26.7375 25.2125C26.5292 25.0042 26.2833 24.9 26 24.9C25.7167 24.9 25.4708 25.0042 25.2625 25.2125C25.0542 25.4208 24.95 25.6667 24.95 25.95C24.95 26.2333 25.0542 26.4792 25.2625 26.6875C25.4708 26.8958 25.7167 27 26 27ZM25.25 23.8H26.75C26.75 23.3167 26.8 22.9625 26.9 22.7375C27 22.5125 27.2333 22.2167 27.6 21.85C28.1 21.35 28.4333 20.9458 28.6 20.6375C28.7667 20.3292 28.85 19.9667 28.85 19.55C28.85 18.8 28.5875 18.1875 28.0625 17.7125C27.5375 17.2375 26.85 17 26 17C25.3167 17 24.7208 17.1917 24.2125 17.575C23.7042 17.9583 23.35 18.4667 23.15 19.1L24.5 19.65C24.65 19.2333 24.8542 18.9208 25.1125 18.7125C25.3708 18.5042 25.6667 18.4 26 18.4C26.4 18.4 26.725 18.5125 26.975 18.7375C27.225 18.9625 27.35 19.2667 27.35 19.65C27.35 19.8833 27.2833 20.1042 27.15 20.3125C27.0167 20.5208 26.7833 20.7833 26.45 21.1C25.9 21.5833 25.5625 21.9625 25.4375 22.2375C25.3125 22.5125 25.25 23.0333 25.25 23.8ZM20 30C19.45 30 18.9792 29.8042 18.5875 29.4125C18.1958 29.0208 18 28.55 18 28V16C18 15.45 18.1958 14.9792 18.5875 14.5875C18.9792 14.1958 19.45 14 20 14H32C32.55 14 33.0208 14.1958 33.4125 14.5875C33.8042 14.9792 34 15.45 34 16V28C34 28.55 33.8042 29.0208 33.4125 29.4125C33.0208 29.8042 32.55 30 32 30H20ZM20 28H32V16H20V28ZM16 34C15.45 34 14.9792 33.8042 14.5875 33.4125C14.1958 33.0208 14 32.55 14 32V18H16V32H30V34H16Z" fill="white"/>
</svg>