<svg width="64" height="65" viewBox="0 0 64 65" fill="none" xmlns="http://www.w3.org/2000/svg">
<rect y="0.5" width="64" height="64" rx="32" fill="#F8EEE1"/>
<path d="M26.2766 40.9091C24.4959 40.9091 23.1431 40.2434 22.2181 38.9119C21.2931 37.5805 20.8537 36.0855 20.9 34.4271L20.2756 33.4811C20.0213 33.084 19.5992 32.1847 19.0095 30.7831C18.4198 29.3816 18.125 27.6181 18.125 25.4924C18.125 23.0865 18.7147 21.0835 19.8941 19.4834C21.0734 17.8834 22.565 17.0833 24.3688 17.0833C26.3344 17.0833 27.8664 17.9651 28.9648 19.7287C30.0633 21.4923 30.6125 23.4135 30.6125 25.4924C30.6125 26.8472 30.4275 28.0969 30.0575 29.2415C29.6875 30.386 29.3638 31.3087 29.0863 32.0095L29.3638 32.465C29.5487 32.792 29.8031 33.3117 30.1269 34.0241C30.4506 34.7366 30.6125 35.4782 30.6125 36.249C30.6125 37.5805 30.202 38.69 29.3811 39.5776C28.5602 40.4653 27.5253 40.9091 26.2766 40.9091ZM22.6344 31.9394L26.45 31.1686C26.7506 30.4211 27.057 29.5685 27.3692 28.6108C27.6814 27.6531 27.8375 26.6136 27.8375 25.4924C27.8375 24.0909 27.5195 22.8062 26.8836 21.6383C26.2477 20.4703 25.4094 19.8864 24.3688 19.8864C23.3281 19.8864 22.4898 20.4703 21.8539 21.6383C21.218 22.8062 20.9 24.0909 20.9 25.4924C20.9 26.964 21.1023 28.2663 21.507 29.3991C21.9117 30.532 22.2875 31.3788 22.6344 31.9394ZM26.2766 38.1061C26.7159 38.1061 27.0859 37.9425 27.3866 37.6155C27.6872 37.2885 27.8375 36.833 27.8375 36.249C27.8375 35.852 27.745 35.4432 27.56 35.0227C27.375 34.6023 27.19 34.2285 27.005 33.9015L23.675 34.6023C23.675 35.5366 23.8773 36.3542 24.282 37.0549C24.6867 37.7557 25.3516 38.1061 26.2766 38.1061ZM37.7234 47.9167C36.4747 47.9167 35.4398 47.4728 34.6189 46.5852C33.798 45.6976 33.3875 44.5881 33.3875 43.2566C33.3875 42.4858 33.5494 41.7442 33.8731 41.0317C34.1969 40.3193 34.4513 39.7996 34.6362 39.4725L34.9137 39.017C34.6362 38.3163 34.3125 37.3936 33.9425 36.249C33.5725 35.1045 33.3875 33.8548 33.3875 32.5C33.3875 30.4211 33.9367 28.4998 35.0352 26.7363C36.1336 24.9727 37.6656 24.0909 39.6313 24.0909C41.435 24.0909 42.9266 24.8909 44.1059 26.491C45.2853 28.0911 45.875 30.0941 45.875 32.5C45.875 34.6256 45.5802 36.3834 44.9905 37.7732C44.4008 39.163 43.9788 40.0565 43.7244 40.4536L43.1 41.4347C43.1231 43.0931 42.678 44.5881 41.7645 45.9195C40.8511 47.2509 39.5041 47.9167 37.7234 47.9167ZM41.3656 38.947C41.7125 38.3864 42.0883 37.5455 42.493 36.4242C42.8977 35.303 43.1 33.9949 43.1 32.5C43.1 31.0985 42.782 29.8138 42.1461 28.6458C41.5102 27.4779 40.6719 26.8939 39.6313 26.8939C38.5906 26.8939 37.7523 27.4779 37.1164 28.6458C36.4805 29.8138 36.1625 31.0985 36.1625 32.5C36.1625 33.6212 36.3186 34.6548 36.6308 35.6008C36.943 36.5469 37.2494 37.4053 37.55 38.1761L41.3656 38.947ZM37.7234 45.1136C38.6484 45.1136 39.3133 44.7633 39.718 44.0625C40.1227 43.3617 40.325 42.5442 40.325 41.6098L36.995 40.9091C36.81 41.2361 36.625 41.6098 36.44 42.0303C36.255 42.4508 36.1625 42.8595 36.1625 43.2566C36.1625 43.7238 36.307 44.1501 36.5961 44.5355C36.8852 44.9209 37.2609 45.1136 37.7234 45.1136Z" fill="#756652"/>
</svg>
