<svg width="24" height="25" viewBox="0 0 24 25" fill="none" xmlns="http://www.w3.org/2000/svg">
<path d="M8.62292 16.7191C8.79197 16.8385 8.98545 16.9188 9.18935 16.9541C9.39325 16.9895 9.60246 16.9791 9.80184 16.9236C10.0012 16.8682 10.1858 16.769 10.3421 16.6335C10.4984 16.4979 10.6227 16.3292 10.7058 16.1397L11.3658 14.134C11.5263 13.6514 11.797 13.2129 12.1565 12.8531C12.5159 12.4934 12.9542 12.2223 13.4366 12.0614L15.3549 11.4383C15.6276 11.3434 15.8633 11.1649 16.0286 10.9283C16.1563 10.7488 16.2394 10.5416 16.2712 10.3237C16.3029 10.1058 16.2824 9.88352 16.2113 9.67512C16.1403 9.46672 16.0206 9.27821 15.8623 9.12515C15.704 8.97209 15.5116 8.85887 15.3009 8.79484L13.4024 8.1777C12.9197 8.01758 12.4809 7.74723 12.1209 7.38808C11.7608 7.02892 11.4894 6.59084 11.3281 6.10855L10.7049 4.19112C10.6091 3.91946 10.4312 3.68431 10.1958 3.51827C9.95898 3.35498 9.67813 3.26754 9.39049 3.26754C9.10285 3.26754 8.82201 3.35498 8.58521 3.51827C8.34617 3.68731 8.16627 3.92717 8.07092 4.20398L7.44006 6.14541C7.27913 6.61518 7.01346 7.04218 6.66315 7.39413C6.31284 7.74607 5.88708 8.01372 5.41807 8.17684L3.49806 8.79913C3.22486 8.8957 2.98855 9.07503 2.82201 9.31217C2.65547 9.54931 2.56699 9.83246 2.56888 10.1222C2.57076 10.412 2.66292 10.694 2.83253 10.9289C3.00214 11.1639 3.24077 11.3401 3.51521 11.4331L5.41464 12.0503C6.03045 12.2569 6.57181 12.6403 6.97121 13.1526C7.19921 13.4466 7.37492 13.7766 7.49064 14.1297L8.11464 16.0446C8.21064 16.3171 8.38892 16.5528 8.62464 16.7191M16.9766 21.9306C17.1511 22.0538 17.3596 22.1197 17.5732 22.1191C17.7854 22.1198 17.9926 22.0548 18.1664 21.9331C18.3453 21.8068 18.4792 21.6266 18.5486 21.4188L18.8675 20.4391C18.9349 20.2357 19.0488 20.0508 19.2001 19.8991C19.3514 19.7473 19.536 19.6329 19.7392 19.5648L20.7386 19.2408C20.9402 19.1692 21.1147 19.0371 21.2382 18.8625C21.3617 18.6878 21.4282 18.4793 21.4286 18.2654C21.4286 18.0459 21.3584 17.8322 21.2283 17.6554C21.0981 17.4787 20.9148 17.3482 20.7052 17.2831L19.7246 16.966C19.5211 16.8985 19.3362 16.7844 19.1844 16.633C19.0327 16.4815 18.9183 16.2968 18.8504 16.0934L18.5246 15.0966C18.4544 14.8931 18.3221 14.7168 18.1464 14.5925C17.9707 14.4682 17.7604 14.4022 17.5451 14.4037C17.3299 14.4052 17.1206 14.4742 16.9466 14.6009C16.7727 14.7277 16.6429 14.9058 16.5755 15.1103L16.2549 16.0926C16.1892 16.2933 16.0783 16.4763 15.9308 16.6274C15.7832 16.7786 15.6029 16.8938 15.4038 16.9643L14.4044 17.2883C14.2023 17.3596 14.0274 17.4918 13.9035 17.6666C13.7797 17.8414 13.713 18.0503 13.7126 18.2646C13.7129 18.4806 13.7811 18.6912 13.9078 18.8662C14.0344 19.0413 14.2129 19.1721 14.4181 19.24L15.3986 19.5588C15.6029 19.6262 15.7885 19.7407 15.9404 19.893C16.0923 20.0453 16.2062 20.2312 16.2729 20.4357L16.5978 21.4326C16.6687 21.634 16.8005 21.8083 16.9749 21.9314" fill="black"/>
</svg>
