<svg width="26" height="27" viewBox="0 0 26 27" fill="none" xmlns="http://www.w3.org/2000/svg">
<g clip-path="url(#clip0_2809_3307)">
<path d="M13.856 23.0955L3.25012 12.4897V14.6564C3.25012 15.2305 3.47762 15.783 3.88929 16.1839L12.3285 24.623C13.1735 25.468 14.5493 25.468 15.3943 24.623L22.1218 17.8955C22.9668 17.0505 22.9668 15.6747 22.1218 14.8297L13.856 23.0955Z" fill="black"/>
<path d="M12.3285 19.2064C12.751 19.6289 13.3035 19.8456 13.856 19.8456C14.4085 19.8456 14.961 19.6289 15.3835 19.2064L22.111 12.4789C22.956 11.6339 22.956 10.2581 22.111 9.41305L13.6718 0.973884C13.271 0.573051 12.7185 0.345551 12.1443 0.345551H5.41679C4.22512 0.345551 3.25012 1.32055 3.25012 2.51222V9.23972C3.25012 9.81388 3.47762 10.3664 3.88929 10.7672L12.3285 19.2064ZM5.41679 2.51222H12.1443L20.5835 10.9514L13.856 17.6789L5.41679 9.23972V2.51222Z" fill="black"/>
<path d="M7.85423 6.30391C8.60211 6.30391 9.20839 5.69763 9.20839 4.94975C9.20839 4.20186 8.60211 3.59558 7.85423 3.59558C7.10634 3.59558 6.50006 4.20186 6.50006 4.94975C6.50006 5.69763 7.10634 6.30391 7.85423 6.30391Z" fill="black"/>
</g>
<defs>
<clipPath id="clip0_2809_3307">
<rect width="26" height="26" fill="white" transform="translate(0 0.345551)"/>
</clipPath>
</defs>
</svg>
