<svg width="64" height="64" viewBox="0 0 64 64" fill="none" xmlns="http://www.w3.org/2000/svg">
<rect width="64" height="64" rx="32" fill="#F8EEE1"/>
<path d="M26 26.3335L26.224 23.6481C26.3446 22.1992 27.0055 20.8486 28.0753 19.8641C29.1452 18.8796 30.546 18.3332 32 18.3332C33.4539 18.3332 34.8547 18.8796 35.9246 19.8641C36.9945 20.8486 37.6553 22.1992 37.776 23.6481L38 26.3335M20.0826 35.9241L20.5693 33.1628C21.1453 29.8988 21.432 28.2668 22.572 27.3001C23.712 26.3335 25.3493 26.3335 28.6226 26.3335H35.3773C38.6506 26.3335 40.288 26.3335 41.428 27.3001C42.568 28.2668 42.8546 29.8988 43.4306 33.1628L43.9173 35.9241C44.7146 40.4415 45.112 42.7001 43.8866 44.1841C42.66 45.6668 40.3933 45.6668 35.864 45.6668H28.136C23.6053 45.6668 21.34 45.6668 20.1133 44.1828C18.8866 42.6988 19.2866 40.4415 20.0826 35.9241Z" stroke="#756652" stroke-width="2" stroke-linecap="round" stroke-linejoin="round"/>
<path d="M36 30.3335C35.8267 32.2175 34.088 33.6668 32 33.6668C29.912 33.6668 28.1733 32.2175 28 30.3335" stroke="#756652" stroke-width="2" stroke-linecap="round" stroke-linejoin="round"/>
</svg>
