<svg class="w-full h-auto" width="69" height="68" viewBox="0 0 69 68" fill="none" xmlns="http://www.w3.org/2000/svg">
<path fill-rule="evenodd" clip-rule="evenodd" d="M0.721248 23.1515C0.720048 23.19 0.716708 23.2305 0.71326 23.2724C0.705984 23.3607 0.698209 23.4552 0.708725 23.5502L1.13172 43.0376L2.47532 61.7359C2.54655 62.636 3.20011 63.3748 4.09062 63.5425L20.889 66.7837C20.9387 66.7853 20.9883 66.7919 21.0378 66.7984C21.0874 66.8049 21.137 66.8115 21.1867 66.813L42.083 67.6091L42.3017 67.6159L63.274 66.0001C64.2115 65.9298 64.9506 65.2147 65.099 64.3016L67.5887 47.1404L67.5955 46.9211L68.2638 25.6321C68.2638 25.6321 68.2701 25.4329 68.2529 25.3526L66.0917 6.06992C69.4819 5.3779 67.9899 2.08028 67.2206 1.85658L50.8059 0.302277C50.6282 0.256766 50.4299 0.230621 50.251 0.224993L19.9576 0.111456L19.7189 0.103964L5.95456 1.66692C5.07581 1.75903 4.37776 2.43546 4.21101 3.30815L0.69948 23.2107L0.721248 23.1515ZM34.6574 35.9889L39.7377 31.8907C39.7429 31.8859 39.743 31.881 39.743 31.881C39.747 31.8773 39.7536 31.8739 39.761 31.8703L39.7672 31.8675L39.7685 31.8669L49.0994 24.338C48.9174 24.2523 48.7193 24.2013 48.5048 24.1946L21.577 23.3487C21.3626 23.342 21.1616 23.3805 20.9746 23.4546L34.6574 35.9889ZM49.8061 25.0538C49.9046 25.2614 49.9622 25.493 49.9545 25.7373L49.4843 40.7073C49.477 40.9416 49.4153 41.1543 49.3144 41.3458L40.8236 32.2989L49.8061 25.0538ZM20.2255 24.1246C20.1144 24.3259 20.0422 24.5532 20.0345 24.7974L19.5643 39.7671C19.5571 39.9964 19.6053 40.2126 19.6939 40.415L28.7355 31.9241L20.2255 24.1246ZM34.9545 37.0363L40.0452 32.9283L48.5845 42.0268C48.3871 42.1155 48.171 42.1637 47.9416 42.1565L21.0138 41.3106C20.7794 41.3033 20.5667 41.2417 20.3753 41.1407L29.4833 32.5965L34.3061 37.0159C34.3985 37.0986 34.5118 37.1421 34.6266 37.1457C34.7414 37.1494 34.8572 37.1132 34.9545 37.0363Z" fill="black"/>
</svg>
