<svg class="w-full h-auto" width="30" height="31" viewBox="0 0 30 31" fill="none" xmlns="http://www.w3.org/2000/svg">
<g clip-path="url(#clip0_692_17463)">
<path fill-rule="evenodd" clip-rule="evenodd" d="M0 15.1992C0 11.221 1.58035 7.40566 4.3934 4.59262C7.20644 1.77957 11.0218 0.199219 15 0.199219C18.9782 0.199219 22.7936 1.77957 25.6066 4.59262C28.4196 7.40566 30 11.221 30 15.1992C30 19.1775 28.4196 22.9928 25.6066 25.8058C22.7936 28.6189 18.9782 30.1992 15 30.1992C11.0218 30.1992 7.20644 28.6189 4.3934 25.8058C1.58035 22.9928 0 19.1775 0 15.1992ZM14.144 21.6192L22.78 10.8232L21.22 9.57522L13.856 18.7772L8.64 14.4312L7.36 15.9672L14.144 21.6192Z" fill="white"/>
</g>
<defs>
<clipPath id="clip0_692_17463">
<rect width="30" height="30" fill="white" transform="translate(0 0.199219)"/>
</clipPath>
</defs>
</svg>
