<svg width="22" height="22" viewBox="0 0 22 22" fill="none" xmlns="http://www.w3.org/2000/svg">
<path d="M6.50003 6.7501L6.66803 4.7361C6.75854 3.64942 7.25415 2.63645 8.05657 1.89809C8.85898 1.15973 9.9096 0.749908 11 0.749908C12.0905 0.749908 13.1411 1.15973 13.9435 1.89809C14.7459 2.63645 15.2415 3.64942 15.332 4.7361L15.5 6.7501M2.06203 13.9431L2.42703 11.8721C2.85903 9.4241 3.07403 8.2001 3.92903 7.4751C4.78403 6.7501 6.01203 6.7501 8.46703 6.7501H13.533C15.988 6.7501 17.216 6.7501 18.071 7.4751C18.926 8.2001 19.141 9.4241 19.573 11.8721L19.938 13.9431C20.536 17.3311 20.834 19.0251 19.915 20.1381C18.995 21.2501 17.295 21.2501 13.898 21.2501H8.10203C4.70403 21.2501 3.00503 21.2501 2.08503 20.1371C1.16503 19.0241 1.46503 17.3311 2.06203 13.9431Z" stroke="currentColor" stroke-width="1.5" stroke-linecap="round" stroke-linejoin="round"/>
</svg>
