<svg width="38" height="25" viewBox="0 0 38 25" fill="none" xmlns="http://www.w3.org/2000/svg">
<rect width="38" height="25" rx="4" fill="#E0E3E8"/>
<path d="M13.0514 8.10616V9.52612H8.79816V12.366H12.3879V13.7926H8.79816V17.7008H7V8.10616H13.0514Z" fill="#009EE0"/>
<path d="M19.5941 9.85125C19.5454 9.94856 19.4879 10.0171 19.4216 10.0569C19.3596 10.0968 19.2845 10.1167 19.196 10.1167C19.1075 10.1167 19.008 10.0835 18.8974 10.0171C18.7868 9.94635 18.6563 9.86894 18.5059 9.78489C18.3555 9.70085 18.1786 9.62565 17.9751 9.55929C17.776 9.48852 17.5394 9.45313 17.2651 9.45313C17.0174 9.45313 16.8006 9.48409 16.6149 9.54602C16.4335 9.60353 16.2787 9.68536 16.1504 9.79153C16.0265 9.89769 15.9336 10.026 15.8717 10.1764C15.8098 10.3224 15.7788 10.4838 15.7788 10.6608C15.7788 10.8864 15.8407 11.0744 15.9646 11.2248C16.0929 11.3752 16.261 11.5034 16.4689 11.6096C16.6768 11.7158 16.9134 11.8109 17.1789 11.8949C17.4443 11.979 17.7141 12.0696 17.9884 12.167C18.267 12.2599 18.5391 12.3704 18.8045 12.4987C19.0699 12.6226 19.3066 12.7818 19.5145 12.9765C19.7224 13.1667 19.8883 13.4011 20.0121 13.6798C20.1404 13.9585 20.2045 14.2969 20.2045 14.695C20.2045 15.1285 20.1293 15.5355 19.9789 15.9159C19.833 16.2919 19.6162 16.6215 19.3287 16.9046C19.0456 17.1832 18.6983 17.4044 18.2869 17.5681C17.8756 17.7273 17.4045 17.807 16.8736 17.807C16.5684 17.807 16.2676 17.776 15.9712 17.7141C15.6749 17.6566 15.3895 17.5725 15.1153 17.4619C14.8454 17.3513 14.5911 17.2186 14.3522 17.0638C14.1178 16.909 13.9077 16.7365 13.7219 16.5463L14.2394 15.6903C14.2881 15.6284 14.3456 15.5775 14.4119 15.5377C14.4827 15.4935 14.5601 15.4713 14.6442 15.4713C14.7548 15.4713 14.8742 15.5178 15.0025 15.6107C15.1308 15.6992 15.2812 15.7987 15.4537 15.9093C15.6306 16.0199 15.8363 16.1216 16.0708 16.2145C16.3096 16.303 16.5949 16.3472 16.9267 16.3472C17.4354 16.3472 17.8291 16.2278 18.1078 15.9889C18.3865 15.7456 18.5258 15.3984 18.5258 14.9472C18.5258 14.695 18.4617 14.4893 18.3334 14.3301C18.2095 14.1708 18.0437 14.0381 17.8357 13.932C17.6278 13.8214 17.3912 13.7285 17.1258 13.6533C16.8604 13.5781 16.5905 13.4962 16.3163 13.4078C16.042 13.3193 15.7722 13.2131 15.5068 13.0893C15.2413 12.9654 15.0047 12.804 14.7968 12.6049C14.5889 12.4058 14.4208 12.1581 14.2925 11.8617C14.1686 11.5609 14.1067 11.1916 14.1067 10.7536C14.1067 10.4042 14.1753 10.0636 14.3124 9.73181C14.454 9.40005 14.6574 9.10588 14.9229 8.84932C15.1927 8.59275 15.5222 8.38706 15.9115 8.23224C16.3008 8.07741 16.7453 8 17.2452 8C17.8114 8 18.3334 8.08847 18.8111 8.26541C19.2889 8.44235 19.6958 8.69007 20.032 9.00856L19.5941 9.85125Z" fill="#009EE0"/>
<path d="M30 17.7008H28.6199C28.465 17.7008 28.3368 17.6632 28.235 17.588C28.1377 17.5084 28.0669 17.4111 28.0227 17.296L27.3061 15.3386H23.3315L22.6149 17.296C22.5795 17.3978 22.5088 17.4907 22.4026 17.5747C22.3008 17.6588 22.1748 17.7008 22.0244 17.7008H20.6376L24.4064 8.10616H26.2312L30 17.7008ZM23.7894 14.0779H26.8482L25.6804 10.8864C25.6273 10.7448 25.5676 10.5789 25.5013 10.3887C25.4393 10.1941 25.3774 9.98395 25.3155 9.75835C25.2536 9.98395 25.1916 10.1941 25.1297 10.3887C25.0722 10.5833 25.0147 10.7536 24.9572 10.8996L23.7894 14.0779Z" fill="#009EE0"/>
</svg>
