<svg width="38" height="25" viewBox="0 0 38 25" fill="none" xmlns="http://www.w3.org/2000/svg">
<rect width="38" height="25" rx="4" fill="#E0E3E8"/>
<path d="M14.2789 16.7227H12.662V12.952H8.61687V16.7227H7V8.09546H8.61687V11.8065H12.662V8.09546H14.2789V16.7227Z" fill="#009EE0"/>
<path d="M20.6433 9.6646C20.5995 9.7521 20.5478 9.81376 20.4881 9.84955C20.4324 9.88535 20.3648 9.90325 20.2853 9.90325C20.2057 9.90325 20.1162 9.87342 20.0168 9.81376C19.9174 9.75012 19.8 9.68051 19.6648 9.60493C19.5295 9.52936 19.3704 9.46174 19.1875 9.40208C19.0085 9.33844 18.7957 9.30662 18.5491 9.30662C18.3263 9.30662 18.1314 9.33446 17.9644 9.39015C17.8013 9.44186 17.6621 9.51544 17.5467 9.6109C17.4354 9.70636 17.3518 9.82171 17.2962 9.95695C17.2405 10.0882 17.2126 10.2334 17.2126 10.3925C17.2126 10.5953 17.2683 10.7644 17.3797 10.8996C17.495 11.0349 17.6462 11.1502 17.8331 11.2457C18.0201 11.3411 18.2329 11.4266 18.4715 11.5022C18.7102 11.5778 18.9528 11.6593 19.1994 11.7468C19.45 11.8304 19.6946 11.9298 19.9333 12.0452C20.1719 12.1565 20.3847 12.2997 20.5717 12.4747C20.7586 12.6458 20.9078 12.8566 21.0191 13.1072C21.1345 13.3577 21.1922 13.662 21.1922 14.02C21.1922 14.4098 21.1245 14.7757 20.9893 15.1178C20.858 15.4559 20.6631 15.7522 20.4046 16.0068C20.15 16.2574 19.8378 16.4562 19.4679 16.6034C19.098 16.7466 18.6744 16.8182 18.1971 16.8182C17.9226 16.8182 17.6521 16.7904 17.3857 16.7347C17.1192 16.683 16.8626 16.6074 16.616 16.5079C16.3734 16.4085 16.1447 16.2892 15.9299 16.15C15.7191 16.0108 15.5301 15.8556 15.3631 15.6846L15.8284 14.9149C15.8722 14.8593 15.9239 14.8135 15.9836 14.7777C16.0472 14.7379 16.1168 14.7181 16.1924 14.7181C16.2918 14.7181 16.3992 14.7598 16.5146 14.8433C16.6299 14.9229 16.7652 15.0124 16.9203 15.1118C17.0794 15.2113 17.2643 15.3028 17.4751 15.3863C17.6899 15.4658 17.9465 15.5056 18.2448 15.5056C18.7022 15.5056 19.0562 15.3982 19.3068 15.1834C19.5574 14.9647 19.6827 14.6524 19.6827 14.2467C19.6827 14.02 19.625 13.835 19.5097 13.6919C19.3983 13.5487 19.2491 13.4293 19.0622 13.3339C18.8752 13.2344 18.6624 13.1509 18.4238 13.0833C18.1851 13.0157 17.9425 12.9421 17.6959 12.8625C17.4493 12.783 17.2067 12.6875 16.968 12.5762C16.7294 12.4648 16.5166 12.3196 16.3296 12.1406C16.1427 11.9616 15.9915 11.7389 15.8762 11.4724C15.7648 11.2019 15.7091 10.8698 15.7091 10.476C15.7091 10.1618 15.7708 9.85552 15.8941 9.5572C16.0214 9.25889 16.2043 8.99438 16.443 8.76369C16.6856 8.53299 16.9819 8.34803 17.332 8.20882C17.682 8.06961 18.0817 8 18.5312 8C19.0403 8 19.5097 8.07955 19.9392 8.23865C20.3688 8.39775 20.7347 8.62049 21.037 8.90688L20.6433 9.6646Z" fill="#009EE0"/>
<path d="M30 16.7227H28.759C28.6198 16.7227 28.5044 16.6889 28.413 16.6213C28.3255 16.5497 28.2618 16.4622 28.222 16.3588L27.5777 14.5987H24.0039L23.3595 16.3588C23.3277 16.4503 23.264 16.5338 23.1686 16.6094C23.0771 16.6849 22.9637 16.7227 22.8285 16.7227H21.5815L24.9704 8.09546H26.6111L30 16.7227ZM24.4155 13.4651H27.166L26.1159 10.5953C26.0682 10.4681 26.0145 10.3189 25.9548 10.1479C25.8992 9.97286 25.8435 9.78392 25.7878 9.58107C25.7321 9.78392 25.6764 9.97286 25.6207 10.1479C25.569 10.3229 25.5173 10.476 25.4656 10.6073L24.4155 13.4651Z" fill="#009EE0"/>
</svg>
