<svg width="31" height="31" viewBox="0 0 31 31" fill="none" xmlns="http://www.w3.org/2000/svg">
<path fill-rule="evenodd" clip-rule="evenodd" d="M0.5 15.5C0.5 11.5218 2.08035 7.70644 4.8934 4.8934C7.70644 2.08035 11.5218 0.5 15.5 0.5C19.4782 0.5 23.2936 2.08035 26.1066 4.8934C28.9196 7.70644 30.5 11.5218 30.5 15.5C30.5 19.4782 28.9196 23.2936 26.1066 26.1066C23.2936 28.9196 19.4782 30.5 15.5 30.5C11.5218 30.5 7.70644 28.9196 4.8934 26.1066C2.08035 23.2936 0.5 19.4782 0.5 15.5ZM14.644 21.92L23.28 11.124L21.72 9.876L14.356 19.078L9.14 14.732L7.86 16.268L14.644 21.92Z" fill="black"/>
</svg>
