<svg  viewBox="0 0 30 30" fill="none" xmlns="http://www.w3.org/2000/svg">
<path d="M0 15C0 12.0333 0.879735 9.13319 2.52796 6.66645C4.17618 4.19972 6.51886 2.27713 9.25975 1.14181C12.0006 0.00649941 15.0166 -0.290551 17.9264 0.288228C20.8361 0.867006 23.5088 2.29562 25.6066 4.3934C27.7044 6.49119 29.133 9.16394 29.7118 12.0737C30.2906 14.9834 29.9935 17.9994 28.8582 20.7403C27.7229 23.4812 25.8003 25.8238 23.3336 27.4721C20.8668 29.1203 17.9667 30 15 30C11.0218 30 7.20644 28.4197 4.3934 25.6066C1.58035 22.7936 0 18.9783 0 15ZM28 15C28 12.4288 27.2376 9.91543 25.8091 7.77759C24.3806 5.63975 22.3503 3.97351 19.9749 2.98957C17.5994 2.00563 14.9856 1.74819 12.4638 2.2498C9.94207 2.75141 7.62569 3.98954 5.80761 5.80762C3.98953 7.6257 2.7514 9.94208 2.24979 12.4638C1.74818 14.9856 2.00563 17.5995 2.98957 19.9749C3.97351 22.3503 5.63975 24.3807 7.77759 25.8091C9.91543 27.2376 12.4288 28 15 28C18.4478 28 21.7544 26.6304 24.1924 24.1924C26.6304 21.7544 28 18.4478 28 15Z" fill="currentColor"/>
<path d="M11.1306 20.5898L16.7106 14.9998L11.1306 9.40978C10.9444 9.22241 10.8398 8.96896 10.8398 8.70478C10.8398 8.44059 10.9444 8.18714 11.1306 7.99978C11.318 7.81353 11.5715 7.70898 11.8356 7.70898C12.0998 7.70898 12.3533 7.81353 12.5406 7.99978L18.9006 14.3598C19.0692 14.5301 19.1637 14.7601 19.1637 14.9998C19.1637 15.2394 19.0692 15.4694 18.9006 15.6398L12.5406 21.9998C12.3533 22.186 12.0998 22.2906 11.8356 22.2906C11.5715 22.2906 11.318 22.186 11.1306 21.9998C10.9444 21.8124 10.8398 21.559 10.8398 21.2948C10.8398 21.0306 10.9444 20.7771 11.1306 20.5898Z" fill="currentColor"/>
</svg>
